<svg width="512" height="512" viewBox="0 0 512 512" fill="none" xmlns="http://www.w3.org/2000/svg">
  <!-- Outer Shield -->
  <path d="M256 48L80 112V240C80 348.8 154.4 449.6 256 480C357.6 449.6 432 348.8 432 240V112L256 48Z" fill="#1A73E8"/>
  
  <!-- Inner Protection Ring -->
  <circle cx="256" cy="245" r="100" stroke="white" stroke-width="20" stroke-linecap="round" stroke-dasharray="450 150"/>
  
  <!-- P2P Sync Arrows (Top) -->
  <path d="M320 180L350 210L380 180" stroke="white" stroke-width="15" stroke-linecap="round" stroke-linejoin="round"/>
  
  <!-- Keyhole Shape -->
  <circle cx="256" cy="230" r="35" fill="white"/>
  <path d="M230 230H282L295 310H217L230 230Z" fill="white"/>
  
  <!-- Subtle Gradient Overlay -->
  <defs>
    <linearGradient id="paint0_linear" x1="256" y1="48" x2="256" y2="480" gradientUnits="userSpaceOnUse">
      <stop stop-color="white" stop-opacity="0.2"/>
      <stop offset="1" stop-opacity="0"/>
    </linearGradient>
  </defs>
  <path d="M256 48L80 112V240C80 348.8 154.4 449.6 256 480C357.6 449.6 432 348.8 432 240V112L256 48Z" fill="url(#paint0_linear)"/>
</svg>
